<?xml version="1.0" encoding="UTF-8" standalone="no"?>


<!-- Uploaded to: SVG Repo, www.svgrepo.com, Generator: SVG Repo Mixer Tools -->
<svg 
   xmlns:dc="http://purl.org/dc/elements/1.1/"
   xmlns:cc="http://creativecommons.org/ns#"
   xmlns:rdf="http://www.w3.org/1999/02/22-rdf-syntax-ns#"
   xmlns:svg="http://www.w3.org/2000/svg"
   xmlns="http://www.w3.org/2000/svg"
   version="1.1"
   width="24"
   height="24"
   viewBox="0 0 24 24"
   id="svg2">
  <metadata
     id="metadata8">
    <rdf:RDF>
      <cc:Work
         rdf:about="">
        <dc:format>image/svg+xml</dc:format>
        <dc:type
           rdf:resource="http://purl.org/dc/dcmitype/StillImage" />
        <dc:title></dc:title>
      </cc:Work>
    </rdf:RDF>
  </metadata>
  <defs
     id="defs6" />
  <rect
     width="24"
     height="24"
     x="0"
     y="0"
     id="canvas"
     style="fill:none;stroke:none;visibility:hidden" />
  <path
     d="M8 2h8"
     id="waterfall"
     style="color:#000000;fill:#000000;fill-opacity:1;fill-rule:nonzero;stroke:currentColor;stroke-width:2;marker:none;visibility:visible;display:inline;overflow:visible;enable-background:accumulate" />
  <path
     d="M12 2v10c0 1-1 2-2 2s-2-1-2-2 1-2 2-2 2 1 2 2v3c0 1-1 2-2 2s-2-1-2-2 1-2 2-2 2 1 2 2"
     id="waterfall"
     style="color:#000000;fill:#000000;fill-opacity:1;fill-rule:nonzero;stroke:currentColor;stroke-width:2;marker:none;visibility:visible;display:inline;overflow:visible;enable-background:accumulate" />
  <path
     d="M16 2v10c0 1-1 2-2 2s-2-1-2-2 1-2 2-2 2 1 2 2v3c0 1-1 2-2 2s-2-1-2-2 1-2 2-2 2 1 2 2"
     id="waterfall"
     style="color:#000000;fill:#000000;fill-opacity:1;fill-rule:nonzero;stroke:currentColor;stroke-width:2;marker:none;visibility:visible;display:inline;overflow:visible;enable-background:accumulate" />
  <path
     d="M2 22h20"
     id="waterfall"
     style="color:#000000;fill:#000000;fill-opacity:1;fill-rule:nonzero;stroke:currentColor;stroke-width:2;marker:none;visibility:visible;display:inline;overflow:visible;enable-background:accumulate" />
</svg>